<svg width="24" height="24" viewBox="0 0 24 24" fill="none" xmlns="http://www.w3.org/2000/svg">
<path d="M13.686 23.5H9.98C8.18933 23.5 6.80667 23.024 5.832 22.072C4.85733 21.12 4.37 19.7487 4.37 17.958V7.18C4.37 5.38933 4.85733 4.018 5.832 3.066C6.80667 2.114 8.18933 1.638 9.98 1.638H13.686C15.454 1.638 16.8253 2.114 17.8 3.066C18.7973 4.018 19.296 5.38933 19.296 7.18C19.296 7.18 19.296 7.316 19.296 7.588C19.296 7.83733 19.296 8.098 19.296 8.37C19.296 8.642 19.296 8.778 19.296 8.778C19.296 9.27667 19.0467 9.526 18.548 9.526H15.692C15.216 9.526 14.978 9.27667 14.978 8.778C14.978 8.778 14.978 8.66467 14.978 8.438C14.978 8.18867 14.978 7.95067 14.978 7.724C14.978 7.49733 14.978 7.384 14.978 7.384C14.978 6.65867 14.8193 6.14867 14.502 5.854C14.2073 5.53666 13.6973 5.378 12.972 5.378H10.66C9.95733 5.378 9.44733 5.53666 9.13 5.854C8.83533 6.14867 8.688 6.65867 8.688 7.384V17.754C8.688 18.4567 8.83533 18.9667 9.13 19.284C9.44733 19.6013 9.95733 19.76 10.66 19.76H12.972C13.6973 19.76 14.2073 19.6013 14.502 19.284C14.8193 18.9667 14.978 18.4567 14.978 17.754C14.978 17.754 14.978 17.6407 14.978 17.414C14.978 17.1647 14.978 16.9267 14.978 16.7C14.978 16.4733 14.978 16.36 14.978 16.36C14.978 15.8613 15.216 15.612 15.692 15.612H18.548C19.0467 15.612 19.296 15.8613 19.296 16.36C19.296 16.36 19.296 16.4847 19.296 16.734C19.296 16.9833 19.296 17.244 19.296 17.516C19.296 17.7653 19.296 17.9127 19.296 17.958C19.296 19.7487 18.7973 21.12 17.8 22.072C16.8253 23.024 15.454 23.5 13.686 23.5Z" fill="#5D5A75"/>
</svg>
