<svg width="24" height="24" viewBox="0 0 24 24" fill="none" xmlns="http://www.w3.org/2000/svg">
<path d="M17.224 2.352L9.132 22.786C8.95067 23.262 8.64467 23.5 8.214 23.5H6.446C5.92467 23.5 5.75467 23.262 5.936 22.786C6.208 22.0833 6.50267 21.3353 6.82 20.542C7.13733 19.726 7.466 18.8873 7.806 18.026C8.146 17.142 8.49733 16.2467 8.86 15.34C9.24533 14.4107 9.61933 13.4927 9.982 12.586C10.3447 11.6567 10.7073 10.7387 11.07 9.832C11.4553 8.90267 11.818 8.00733 12.158 7.146C12.498 6.262 12.8267 5.42333 13.144 4.63C13.4613 3.814 13.756 3.05467 14.028 2.352C14.1413 2.10267 14.2547 1.92133 14.368 1.808C14.504 1.69467 14.6853 1.638 14.912 1.638H16.714C17.2353 1.638 17.4053 1.876 17.224 2.352ZM4.304 1.604H6.31C7.48867 1.604 8.384 1.91 8.996 2.522C9.608 3.134 9.914 4.018 9.914 5.174V8.438C9.914 9.594 9.608 10.478 8.996 11.09C8.384 11.702 7.48867 12.008 6.31 12.008H4.304C3.148 12.008 2.25267 11.702 1.618 11.09C1.006 10.478 0.7 9.594 0.7 8.438V5.174C0.7 4.018 1.006 3.134 1.618 2.522C2.25267 1.91 3.148 1.604 4.304 1.604ZM5.698 4.018H4.916C4.41733 4.018 4.07733 4.12 3.896 4.324C3.71467 4.528 3.624 4.868 3.624 5.344V8.302C3.624 8.778 3.71467 9.118 3.896 9.322C4.07733 9.50333 4.41733 9.594 4.916 9.594H5.698C6.19667 9.594 6.53667 9.50333 6.718 9.322C6.89933 9.118 6.99 8.778 6.99 8.302V5.344C6.99 4.868 6.89933 4.528 6.718 4.324C6.53667 4.12 6.19667 4.018 5.698 4.018ZM16.85 13.096H18.856C20.0347 13.096 20.93 13.402 21.542 14.014C22.154 14.626 22.46 15.51 22.46 16.666V19.93C22.46 21.086 22.154 21.97 21.542 22.582C20.93 23.194 20.0347 23.5 18.856 23.5H16.85C15.694 23.5 14.7987 23.194 14.164 22.582C13.552 21.97 13.246 21.086 13.246 19.93V16.666C13.246 15.51 13.552 14.626 14.164 14.014C14.7987 13.402 15.694 13.096 16.85 13.096ZM18.278 15.51H17.496C16.9973 15.51 16.6573 15.612 16.476 15.816C16.2947 15.9973 16.204 16.326 16.204 16.802V19.76C16.204 20.236 16.2947 20.576 16.476 20.78C16.6573 20.984 16.9973 21.086 17.496 21.086H18.278C18.7767 21.086 19.1167 20.984 19.298 20.78C19.4793 20.576 19.57 20.236 19.57 19.76V16.802C19.57 16.326 19.4793 15.9973 19.298 15.816C19.1167 15.612 18.7767 15.51 18.278 15.51Z" fill="#5D5A75"/>
</svg>
