<svg width="24" height="29" viewBox="0 0 24 29" fill="none" xmlns="http://www.w3.org/2000/svg">
<path d="M4.08 17.904H1.598C1.30333 17.904 1.09933 17.8473 0.986 17.734C0.872667 17.598 0.816 17.394 0.816 17.122V15.218C0.816 14.9233 0.872667 14.7193 0.986 14.606C1.09933 14.47 1.30333 14.402 1.598 14.402H6.392C6.98133 14.402 7.42333 14.5267 7.718 14.776C8.03533 15.0027 8.262 15.3427 8.398 15.796L10.744 23.106L18.224 0.937999C18.3373 0.688665 18.4507 0.507331 18.564 0.393998C18.7 0.280665 18.8927 0.223998 19.142 0.223998H21.76C22.0093 0.223998 22.1793 0.291999 22.27 0.428C22.3833 0.541333 22.3947 0.711333 22.304 0.937999L13.226 27.186C13.1353 27.4807 12.988 27.73 12.784 27.934C12.6027 28.138 12.2853 28.24 11.832 28.24H9.69C9.078 28.24 8.636 28.07 8.364 27.73C8.092 27.39 7.854 26.9253 7.65 26.336L5.168 18.924C5.05467 18.5613 4.94133 18.3007 4.828 18.142C4.71467 17.9833 4.46533 17.904 4.08 17.904Z" fill="#5D5A75"/>
</svg>
