<svg width="24" height="24" viewBox="0 0 24 24" fill="none" xmlns="http://www.w3.org/2000/svg">
<g filter="url(#filter0_i_11_508)">
<path fill-rule="evenodd" clip-rule="evenodd" d="M9.54193 23C9.54193 23.5523 9.98965 24 10.5419 24H13.4581C14.0104 24 14.4581 23.5523 14.4581 23V14.4581H23C23.5523 14.4581 24 14.0104 24 13.4581V10.5419C24 9.98964 23.5523 9.54193 23 9.54193H14.4581V1C14.4581 0.447715 14.0104 0 13.4581 0H10.5419C9.98964 0 9.54193 0.447716 9.54193 1V9.54193H1C0.447715 9.54193 0 9.98965 0 10.5419V13.4581C0 14.0104 0.447716 14.4581 1 14.4581H9.54193V23Z" fill="white"/>
</g>
<defs>
<filter id="filter0_i_11_508" x="0" y="0" width="24" height="24" filterUnits="userSpaceOnUse" color-interpolation-filters="sRGB">
<feFlood flood-opacity="0" result="BackgroundImageFix"/>
<feBlend mode="normal" in="SourceGraphic" in2="BackgroundImageFix" result="shape"/>
<feColorMatrix in="SourceAlpha" type="matrix" values="0 0 0 0 0 0 0 0 0 0 0 0 0 0 0 0 0 0 127 0" result="hardAlpha"/>
<feOffset/>
<feGaussianBlur stdDeviation="0.5"/>
<feComposite in2="hardAlpha" operator="arithmetic" k2="-1" k3="1"/>
<feColorMatrix type="matrix" values="0 0 0 0 0.917647 0 0 0 0 0.301961 0 0 0 0 0.403922 0 0 0 0.5 0"/>
<feBlend mode="normal" in2="shape" result="effect1_innerShadow_11_508"/>
</filter>
</defs>
</svg>
