<svg width="25" height="25" viewBox="0 0 25 25" fill="none" xmlns="http://www.w3.org/2000/svg">
<path d="M17.724 2.852L9.632 23.286C9.45067 23.762 9.14467 24 8.714 24H6.946C6.42467 24 6.25467 23.762 6.436 23.286C6.708 22.5833 7.00267 21.8353 7.32 21.042C7.63733 20.226 7.966 19.3873 8.306 18.526C8.646 17.642 8.99733 16.7467 9.36 15.84C9.74533 14.9107 10.1193 13.9927 10.482 13.086C10.8447 12.1567 11.2073 11.2387 11.57 10.332C11.9553 9.40267 12.318 8.50733 12.658 7.646C12.998 6.762 13.3267 5.92333 13.644 5.13C13.9613 4.314 14.256 3.55467 14.528 2.852C14.6413 2.60267 14.7547 2.42133 14.868 2.308C15.004 2.19467 15.1853 2.138 15.412 2.138H17.214C17.7353 2.138 17.9053 2.376 17.724 2.852ZM4.804 2.104H6.81C7.98867 2.104 8.884 2.41 9.496 3.022C10.108 3.634 10.414 4.518 10.414 5.674V8.938C10.414 10.094 10.108 10.978 9.496 11.59C8.884 12.202 7.98867 12.508 6.81 12.508H4.804C3.648 12.508 2.75267 12.202 2.118 11.59C1.506 10.978 1.2 10.094 1.2 8.938V5.674C1.2 4.518 1.506 3.634 2.118 3.022C2.75267 2.41 3.648 2.104 4.804 2.104ZM6.198 4.518H5.416C4.91733 4.518 4.57733 4.62 4.396 4.824C4.21467 5.028 4.124 5.368 4.124 5.844V8.802C4.124 9.278 4.21467 9.618 4.396 9.822C4.57733 10.0033 4.91733 10.094 5.416 10.094H6.198C6.69667 10.094 7.03667 10.0033 7.218 9.822C7.39933 9.618 7.49 9.278 7.49 8.802V5.844C7.49 5.368 7.39933 5.028 7.218 4.824C7.03667 4.62 6.69667 4.518 6.198 4.518ZM17.35 13.596H19.356C20.5347 13.596 21.43 13.902 22.042 14.514C22.654 15.126 22.96 16.01 22.96 17.166V20.43C22.96 21.586 22.654 22.47 22.042 23.082C21.43 23.694 20.5347 24 19.356 24H17.35C16.194 24 15.2987 23.694 14.664 23.082C14.052 22.47 13.746 21.586 13.746 20.43V17.166C13.746 16.01 14.052 15.126 14.664 14.514C15.2987 13.902 16.194 13.596 17.35 13.596ZM18.778 16.01H17.996C17.4973 16.01 17.1573 16.112 16.976 16.316C16.7947 16.4973 16.704 16.826 16.704 17.302V20.26C16.704 20.736 16.7947 21.076 16.976 21.28C17.1573 21.484 17.4973 21.586 17.996 21.586H18.778C19.2767 21.586 19.6167 21.484 19.798 21.28C19.9793 21.076 20.07 20.736 20.07 20.26V17.302C20.07 16.826 19.9793 16.4973 19.798 16.316C19.6167 16.112 19.2767 16.01 18.778 16.01Z" fill="#141528"/>
</svg>
