<svg width="17" height="18" viewBox="0 0 17 18" fill="none" xmlns="http://www.w3.org/2000/svg">
<path d="M3.094 13.25L2.4905 13.8535C2.33219 14.0128 2.24333 14.2282 2.24333 14.4528C2.24333 14.6773 2.33219 14.8927 2.4905 15.052C2.64976 15.2103 2.86519 15.2992 3.08975 15.2992C3.31431 15.2992 3.52974 15.2103 3.689 15.052L4.2925 14.4485C4.43175 14.2859 4.50452 14.0767 4.49625 13.8628C4.48799 13.6489 4.39931 13.446 4.24793 13.2946C4.09655 13.1432 3.89362 13.0545 3.6797 13.0462C3.46577 13.038 3.25661 13.1107 3.094 13.25ZM2.55 9C2.55 8.77457 2.46045 8.55837 2.30104 8.39896C2.14163 8.23955 1.92543 8.15 1.7 8.15H0.85C0.624566 8.15 0.408365 8.23955 0.248959 8.39896C0.0895533 8.55837 0 8.77457 0 9C0 9.22543 0.0895533 9.44163 0.248959 9.60104C0.408365 9.76045 0.624566 9.85 0.85 9.85H1.7C1.92543 9.85 2.14163 9.76045 2.30104 9.60104C2.46045 9.44163 2.55 9.22543 2.55 9ZM8.5 3.05C8.72543 3.05 8.94163 2.96045 9.10104 2.80104C9.26045 2.64163 9.35 2.42543 9.35 2.2V1.35C9.35 1.12457 9.26045 0.908365 9.10104 0.748959C8.94163 0.589553 8.72543 0.5 8.5 0.5C8.27457 0.5 8.05837 0.589553 7.89896 0.748959C7.73955 0.908365 7.65 1.12457 7.65 1.35V2.2C7.65 2.42543 7.73955 2.64163 7.89896 2.80104C8.05837 2.96045 8.27457 3.05 8.5 3.05ZM3.094 4.7925C3.25232 4.94953 3.46601 5.03806 3.689 5.039C3.80087 5.03965 3.91176 5.01821 4.01532 4.97591C4.11888 4.93361 4.21308 4.87128 4.2925 4.7925C4.45081 4.63324 4.53967 4.41781 4.53967 4.19325C4.53967 3.96869 4.45081 3.75326 4.2925 3.594L3.689 2.9905C3.52639 2.85125 3.31723 2.77848 3.1033 2.78675C2.88938 2.79501 2.68645 2.88369 2.53507 3.03507C2.38369 3.18645 2.29501 3.38938 2.28675 3.6033C2.27848 3.81723 2.35125 4.02639 2.4905 4.189L3.094 4.7925ZM13.294 5.039C13.517 5.03806 13.7307 4.94953 13.889 4.7925L14.4925 4.189C14.5815 4.1128 14.6537 4.01903 14.7048 3.91357C14.7558 3.80812 14.7845 3.69326 14.789 3.5762C14.7935 3.45913 14.7738 3.3424 14.731 3.23333C14.6883 3.12425 14.6235 3.02518 14.5407 2.94235C14.4578 2.85951 14.3588 2.79469 14.2497 2.75196C14.1406 2.70922 14.0239 2.6895 13.9068 2.69402C13.7897 2.69854 13.6749 2.72721 13.5694 2.77823C13.464 2.82925 13.3702 2.90152 13.294 2.9905L12.75 3.594C12.5917 3.75326 12.5028 3.96869 12.5028 4.19325C12.5028 4.41781 12.5917 4.63324 12.75 4.7925C12.8998 4.94156 13.0999 5.02944 13.311 5.039H13.294ZM16.15 8.15H15.3C15.0746 8.15 14.8584 8.23955 14.699 8.39896C14.5396 8.55837 14.45 8.77457 14.45 9C14.45 9.22543 14.5396 9.44163 14.699 9.60104C14.8584 9.76045 15.0746 9.85 15.3 9.85H16.15C16.3754 9.85 16.5916 9.76045 16.751 9.60104C16.9104 9.44163 17 9.22543 17 9C17 8.77457 16.9104 8.55837 16.751 8.39896C16.5916 8.23955 16.3754 8.15 16.15 8.15ZM8.5 14.95C8.27457 14.95 8.05837 15.0396 7.89896 15.199C7.73955 15.3584 7.65 15.5746 7.65 15.8V16.65C7.65 16.8754 7.73955 17.0916 7.89896 17.251C8.05837 17.4104 8.27457 17.5 8.5 17.5C8.72543 17.5 8.94163 17.4104 9.10104 17.251C9.26045 17.0916 9.35 16.8754 9.35 16.65V15.8C9.35 15.5746 9.26045 15.3584 9.10104 15.199C8.94163 15.0396 8.72543 14.95 8.5 14.95ZM13.906 13.25C13.7445 13.1602 13.5582 13.1254 13.3751 13.151C13.1921 13.1766 13.0224 13.2611 12.8918 13.3918C12.7611 13.5224 12.6766 13.6921 12.651 13.8751C12.6254 14.0582 12.6602 14.2445 12.75 14.406L13.3535 15.0095C13.5128 15.1678 13.7282 15.2567 13.9528 15.2567C14.1773 15.2567 14.3927 15.1678 14.552 15.0095C14.7103 14.8502 14.7992 14.6348 14.7992 14.4103C14.7992 14.1857 14.7103 13.9703 14.552 13.811L13.906 13.25ZM8.5 4.325C7.57537 4.325 6.67151 4.59918 5.90271 5.11288C5.13391 5.62658 4.5347 6.35671 4.18086 7.21095C3.82702 8.0652 3.73444 9.00519 3.91483 9.91205C4.09521 10.8189 4.54047 11.6519 5.19428 12.3057C5.84809 12.9595 6.68109 13.4048 7.58795 13.5852C8.49481 13.7656 9.4348 13.673 10.289 13.3191C11.1433 12.9653 11.8734 12.3661 12.3871 11.5973C12.9008 10.8285 13.175 9.92463 13.175 9C13.1728 7.7608 12.6795 6.573 11.8032 5.69676C10.927 4.82051 9.7392 4.32725 8.5 4.325ZM8.5 11.975C7.9116 11.975 7.33641 11.8005 6.84718 11.4736C6.35794 11.1467 5.97663 10.6821 5.75146 10.1385C5.52629 9.59487 5.46737 8.9967 5.58216 8.41961C5.69695 7.84251 5.9803 7.31242 6.39636 6.89636C6.81242 6.4803 7.34251 6.19695 7.91961 6.08216C8.4967 5.96737 9.09487 6.02629 9.63848 6.25146C10.1821 6.47663 10.6467 6.85794 10.9736 7.34718C11.3005 7.83641 11.475 8.4116 11.475 9C11.475 9.78902 11.1616 10.5457 10.6036 11.1036C10.0457 11.6616 9.28902 11.975 8.5 11.975Z" fill="#EA2B01"/>
<path d="M8.5 11.975C7.9116 11.975 7.33641 11.8005 6.84718 11.4736C6.35794 11.1467 5.97663 10.6821 5.75146 10.1385C5.52629 9.59487 5.46737 8.9967 5.58216 8.41961C5.69695 7.84251 5.9803 7.31242 6.39636 6.89636C6.81242 6.4803 7.34251 6.19695 7.91961 6.08216C8.4967 5.96737 9.09487 6.02629 9.63848 6.25146C10.1821 6.47663 10.6467 6.85794 10.9736 7.34718C11.3005 7.83641 11.475 8.4116 11.475 9C11.475 9.78902 11.1616 10.5457 10.6036 11.1036C10.0457 11.6616 9.28902 11.975 8.5 11.975Z" fill="#EA2B01"/>
</svg>
