<svg width="20" height="20" viewBox="0 0 20 20" fill="none" xmlns="http://www.w3.org/2000/svg">
<path d="M2.786 8.68C2.54836 8.80869 2.34991 8.99919 2.21161 9.23136C2.07331 9.46354 2.00031 9.72876 2.00031 9.999C2.00031 10.2692 2.07331 10.5345 2.21161 10.7666C2.34991 10.9988 2.54836 11.1893 2.786 11.318L14.784 17.818C15.0126 17.9422 15.2696 18.0048 15.5297 17.9996C15.7898 17.9945 16.0441 17.9218 16.2676 17.7886C16.4911 17.6555 16.6762 17.4665 16.8046 17.2402C16.933 17.0139 17.0003 16.7582 17 16.498V3.5C17.0002 3.23998 16.9329 2.98436 16.8045 2.75822C16.6762 2.53209 16.4913 2.3432 16.2679 2.21008C16.0445 2.07697 15.7904 2.00421 15.5304 1.99894C15.2705 1.99366 15.0136 2.05606 14.785 2.18L2.786 8.68Z" fill="black"/>
</svg>
