<svg width="26" height="26" viewBox="0 0 26 26" fill="none" xmlns="http://www.w3.org/2000/svg">
<path d="M20.7637 15.8817C20.9405 15.4605 20.4352 15.1017 20.0114 15.2889C19.1643 15.6607 18.249 15.852 17.3239 15.8505C13.6968 15.8505 10.7571 12.9697 10.7571 9.4155C10.7557 8.21547 11.0967 7.03995 11.7399 6.02685C11.986 5.63858 11.6905 5.10125 11.2398 5.21565C7.76531 6.10225 5.19995 9.19797 5.19995 12.8804C5.19995 17.2545 8.81832 20.8 13.2826 20.8C16.6626 20.8 19.5573 18.7677 20.7637 15.8817Z" fill="white"/>
<path d="M16.3521 6.58485C15.9147 6.29264 15.3931 6.81433 15.6844 7.25182L16.2044 8.03187C16.4153 8.34815 16.5279 8.71982 16.5279 9.1C16.5279 9.48018 16.4153 9.85185 16.2044 10.1681L15.6844 10.9482C15.3931 11.3857 15.9155 11.9074 16.353 11.6151L17.1321 11.0951C17.4484 10.8842 17.82 10.7716 18.2002 10.7716C18.5803 10.7716 18.952 10.8842 19.2682 11.0951L20.0482 11.6151C20.4857 11.9074 21.0073 11.3857 20.7151 10.9482L20.1951 10.1681C19.9842 9.85185 19.8716 9.48018 19.8716 9.1C19.8716 8.71982 19.9842 8.34815 20.1951 8.03187L20.7151 7.25182C21.0073 6.81433 20.4857 6.29264 20.0474 6.58485L19.2682 7.10489C18.952 7.31584 18.5803 7.42842 18.2002 7.42842C17.82 7.42842 17.4484 7.31584 17.1321 7.10489L16.3521 6.58485Z" fill="white"/>
</svg>
