<svg width="92" height="44" viewBox="0 0 92 44" fill="none" xmlns="http://www.w3.org/2000/svg">
<g filter="url(#filter0_dii_25_51)">
<rect x="4" y="4" width="80" height="32" rx="8" fill="url(#paint0_linear_25_51)" shape-rendering="crispEdges"/>
<path d="M36.7861 18.68C36.5484 18.8087 36.35 18.9992 36.2117 19.2314C36.0734 19.4635 36.0004 19.7288 36.0004 19.999C36.0004 20.2692 36.0734 20.5345 36.2117 20.7666C36.35 20.9988 36.5484 21.1893 36.7861 21.318L48.7841 27.818C49.0127 27.9422 49.2696 28.0048 49.5298 27.9996C49.7899 27.9945 50.0442 27.9218 50.2677 27.7886C50.4912 27.6555 50.6763 27.4665 50.8047 27.2402C50.933 27.0139 51.0004 26.7582 51.0001 26.498V13.5C51.0003 13.24 50.9329 12.9844 50.8046 12.7582C50.6762 12.5321 50.4913 12.3432 50.2679 12.2101C50.0446 12.077 49.7904 12.0042 49.5305 11.9989C49.2705 11.9937 49.0136 12.0561 48.7851 12.18L36.7861 18.68Z" fill="black"/>
</g>
<defs>
<filter id="filter0_dii_25_51" x="0" y="0" width="92" height="44" filterUnits="userSpaceOnUse" color-interpolation-filters="sRGB">
<feFlood flood-opacity="0" result="BackgroundImageFix"/>
<feColorMatrix in="SourceAlpha" type="matrix" values="0 0 0 0 0 0 0 0 0 0 0 0 0 0 0 0 0 0 127 0" result="hardAlpha"/>
<feOffset dx="2" dy="2"/>
<feGaussianBlur stdDeviation="3"/>
<feComposite in2="hardAlpha" operator="out"/>
<feColorMatrix type="matrix" values="0 0 0 0 0 0 0 0 0 0 0 0 0 0 0 0 0 0 0.75 0"/>
<feBlend mode="normal" in2="BackgroundImageFix" result="effect1_dropShadow_25_51"/>
<feBlend mode="normal" in="SourceGraphic" in2="effect1_dropShadow_25_51" result="shape"/>
<feColorMatrix in="SourceAlpha" type="matrix" values="0 0 0 0 0 0 0 0 0 0 0 0 0 0 0 0 0 0 127 0" result="hardAlpha"/>
<feOffset dx="2" dy="2"/>
<feGaussianBlur stdDeviation="2"/>
<feComposite in2="hardAlpha" operator="arithmetic" k2="-1" k3="1"/>
<feColorMatrix type="matrix" values="0 0 0 0 0.894583 0 0 0 0 0.907767 0 0 0 0 0.941667 0 0 0 0.6 0"/>
<feBlend mode="normal" in2="shape" result="effect2_innerShadow_25_51"/>
<feColorMatrix in="SourceAlpha" type="matrix" values="0 0 0 0 0 0 0 0 0 0 0 0 0 0 0 0 0 0 127 0" result="hardAlpha"/>
<feOffset dx="-2" dy="-2"/>
<feGaussianBlur stdDeviation="2"/>
<feComposite in2="hardAlpha" operator="arithmetic" k2="-1" k3="1"/>
<feColorMatrix type="matrix" values="0 0 0 0 0.00164931 0 0 0 0 0.0298374 0 0 0 0 0.0791667 0 0 0 0.8 0"/>
<feBlend mode="normal" in2="effect2_innerShadow_25_51" result="effect3_innerShadow_25_51"/>
</filter>
<linearGradient id="paint0_linear_25_51" x1="10.5" y1="5.2" x2="25.808" y2="49.6926" gradientUnits="userSpaceOnUse">
<stop stop-color="#929EB1"/>
<stop offset="1" stop-color="#CBD1DA"/>
</linearGradient>
</defs>
</svg>
