<svg width="92" height="92" viewBox="0 0 92 92" fill="none" xmlns="http://www.w3.org/2000/svg">
<g filter="url(#filter0_dii_11_632)">
<rect x="4" y="4" width="80" height="80" rx="16" fill="url(#paint0_linear_11_632)" shape-rendering="crispEdges"/>
<path d="M45.404 55.5H38.23C37.7313 55.5 37.482 55.262 37.482 54.786V52.44C37.482 51.9867 37.7313 51.76 38.23 51.76H44.724C45.4493 51.76 45.9593 51.6013 46.254 51.284C46.5487 50.9667 46.696 50.4567 46.696 49.754V47.714H42.072C40.2813 47.714 38.8987 47.238 37.924 46.286C36.9493 45.334 36.462 43.974 36.462 42.206V39.18C36.462 37.3893 36.9493 36.018 37.924 35.066C38.8987 34.114 40.2813 33.638 42.072 33.638H45.404C47.1947 33.638 48.5773 34.114 49.552 35.066C50.5267 36.018 51.014 37.3893 51.014 39.18V49.958C51.014 51.7487 50.5267 53.12 49.552 54.072C48.5773 55.024 47.1947 55.5 45.404 55.5ZM42.786 43.974H46.73V39.384C46.73 38.6587 46.5713 38.1487 46.254 37.854C45.9593 37.5367 45.4493 37.378 44.724 37.378H42.786C42.0607 37.378 41.5507 37.5367 41.256 37.854C40.9613 38.1487 40.814 38.6587 40.814 39.384V42.002C40.814 42.7047 40.9613 43.2147 41.256 43.532C41.5507 43.8267 42.0607 43.974 42.786 43.974Z" fill="#B7C2D6"/>
</g>
<defs>
<filter id="filter0_dii_11_632" x="0" y="0" width="92" height="92" filterUnits="userSpaceOnUse" color-interpolation-filters="sRGB">
<feFlood flood-opacity="0" result="BackgroundImageFix"/>
<feColorMatrix in="SourceAlpha" type="matrix" values="0 0 0 0 0 0 0 0 0 0 0 0 0 0 0 0 0 0 127 0" result="hardAlpha"/>
<feOffset dx="2" dy="2"/>
<feGaussianBlur stdDeviation="3"/>
<feComposite in2="hardAlpha" operator="out"/>
<feColorMatrix type="matrix" values="0 0 0 0 0 0 0 0 0 0 0 0 0 0 0 0 0 0 0.75 0"/>
<feBlend mode="normal" in2="BackgroundImageFix" result="effect1_dropShadow_11_632"/>
<feBlend mode="normal" in="SourceGraphic" in2="effect1_dropShadow_11_632" result="shape"/>
<feColorMatrix in="SourceAlpha" type="matrix" values="0 0 0 0 0 0 0 0 0 0 0 0 0 0 0 0 0 0 127 0" result="hardAlpha"/>
<feOffset dx="2" dy="2"/>
<feGaussianBlur stdDeviation="2"/>
<feComposite in2="hardAlpha" operator="arithmetic" k2="-1" k3="1"/>
<feColorMatrix type="matrix" values="0 0 0 0 0.894583 0 0 0 0 0.907767 0 0 0 0 0.941667 0 0 0 0.12 0"/>
<feBlend mode="normal" in2="shape" result="effect2_innerShadow_11_632"/>
<feColorMatrix in="SourceAlpha" type="matrix" values="0 0 0 0 0 0 0 0 0 0 0 0 0 0 0 0 0 0 127 0" result="hardAlpha"/>
<feOffset dx="-2" dy="-2"/>
<feGaussianBlur stdDeviation="2"/>
<feComposite in2="hardAlpha" operator="arithmetic" k2="-1" k3="1"/>
<feColorMatrix type="matrix" values="0 0 0 0 0.00164931 0 0 0 0 0.0298374 0 0 0 0 0.0791667 0 0 0 0.8 0"/>
<feBlend mode="normal" in2="effect2_innerShadow_11_632" result="effect3_innerShadow_11_632"/>
</filter>
<linearGradient id="paint0_linear_11_632" x1="10.5" y1="7" x2="72" y2="78.5" gradientUnits="userSpaceOnUse">
<stop stop-color="#1B2434"/>
<stop offset="1" stop-color="#273348"/>
</linearGradient>
</defs>
</svg>
