<svg width="92" height="92" viewBox="0 0 92 92" fill="none" xmlns="http://www.w3.org/2000/svg">
<g filter="url(#filter0_dii_11_526)">
<rect x="4" y="4" width="80" height="80" rx="16" fill="url(#paint0_linear_11_526)" shape-rendering="crispEdges"/>
<path d="M42.828 38.228L39.496 40.132C39.2013 40.2453 39.0087 40.268 38.918 40.2C38.8273 40.1093 38.782 39.9507 38.782 39.724V36.936C38.782 36.5507 38.952 36.256 39.292 36.052L42.386 34.114C42.6353 33.9553 42.862 33.842 43.066 33.774C43.27 33.6833 43.4853 33.638 43.712 33.638H46.432C46.908 33.638 47.146 33.876 47.146 34.352V54.786C47.146 55.0807 47.0893 55.2733 46.976 55.364C46.8853 55.4547 46.7153 55.5 46.466 55.5H43.542C43.066 55.5 42.828 55.262 42.828 54.786V38.228Z" fill="#B7C2D6"/>
</g>
<defs>
<filter id="filter0_dii_11_526" x="0" y="0" width="92" height="92" filterUnits="userSpaceOnUse" color-interpolation-filters="sRGB">
<feFlood flood-opacity="0" result="BackgroundImageFix"/>
<feColorMatrix in="SourceAlpha" type="matrix" values="0 0 0 0 0 0 0 0 0 0 0 0 0 0 0 0 0 0 127 0" result="hardAlpha"/>
<feOffset dx="2" dy="2"/>
<feGaussianBlur stdDeviation="3"/>
<feComposite in2="hardAlpha" operator="out"/>
<feColorMatrix type="matrix" values="0 0 0 0 0 0 0 0 0 0 0 0 0 0 0 0 0 0 0.75 0"/>
<feBlend mode="normal" in2="BackgroundImageFix" result="effect1_dropShadow_11_526"/>
<feBlend mode="normal" in="SourceGraphic" in2="effect1_dropShadow_11_526" result="shape"/>
<feColorMatrix in="SourceAlpha" type="matrix" values="0 0 0 0 0 0 0 0 0 0 0 0 0 0 0 0 0 0 127 0" result="hardAlpha"/>
<feOffset dx="2" dy="2"/>
<feGaussianBlur stdDeviation="2"/>
<feComposite in2="hardAlpha" operator="arithmetic" k2="-1" k3="1"/>
<feColorMatrix type="matrix" values="0 0 0 0 0.894583 0 0 0 0 0.907767 0 0 0 0 0.941667 0 0 0 0.12 0"/>
<feBlend mode="normal" in2="shape" result="effect2_innerShadow_11_526"/>
<feColorMatrix in="SourceAlpha" type="matrix" values="0 0 0 0 0 0 0 0 0 0 0 0 0 0 0 0 0 0 127 0" result="hardAlpha"/>
<feOffset dx="-2" dy="-2"/>
<feGaussianBlur stdDeviation="2"/>
<feComposite in2="hardAlpha" operator="arithmetic" k2="-1" k3="1"/>
<feColorMatrix type="matrix" values="0 0 0 0 0.00164931 0 0 0 0 0.0298374 0 0 0 0 0.0791667 0 0 0 0.8 0"/>
<feBlend mode="normal" in2="effect2_innerShadow_11_526" result="effect3_innerShadow_11_526"/>
</filter>
<linearGradient id="paint0_linear_11_526" x1="10.5" y1="7" x2="72" y2="78.5" gradientUnits="userSpaceOnUse">
<stop stop-color="#1B2434"/>
<stop offset="1" stop-color="#273348"/>
</linearGradient>
</defs>
</svg>
