<svg width="92" height="92" viewBox="0 0 92 92" fill="none" xmlns="http://www.w3.org/2000/svg">
<g filter="url(#filter0_dii_11_629)">
<rect x="4" y="4" width="80" height="80" rx="16" fill="url(#paint0_linear_11_629)" shape-rendering="crispEdges"/>
<path d="M48.678 55.5H46.026C45.55 55.5 45.312 55.262 45.312 54.786V51.522H36.88C36.5173 51.522 36.2113 51.4087 35.962 51.182C35.7353 50.9553 35.622 50.6493 35.622 50.264V48.938C35.622 48.5753 35.6447 48.2693 35.69 48.02C35.758 47.748 35.8487 47.4987 35.962 47.272L42.728 34.692C42.9547 34.284 43.1587 34.012 43.34 33.876C43.544 33.7173 43.8387 33.638 44.224 33.638H48.066C48.4513 33.638 48.7573 33.7513 48.984 33.978C49.2333 34.2047 49.358 34.5107 49.358 34.896V47.782H51.806C52.2593 47.782 52.486 48.0087 52.486 48.462V50.74C52.486 51.2613 52.2593 51.522 51.806 51.522H49.358V54.786C49.358 55.0807 49.3013 55.2733 49.188 55.364C49.0973 55.4547 48.9273 55.5 48.678 55.5ZM45.312 37.276L39.804 47.782H45.312V37.276Z" fill="#B7C2D6"/>
</g>
<defs>
<filter id="filter0_dii_11_629" x="0" y="0" width="92" height="92" filterUnits="userSpaceOnUse" color-interpolation-filters="sRGB">
<feFlood flood-opacity="0" result="BackgroundImageFix"/>
<feColorMatrix in="SourceAlpha" type="matrix" values="0 0 0 0 0 0 0 0 0 0 0 0 0 0 0 0 0 0 127 0" result="hardAlpha"/>
<feOffset dx="2" dy="2"/>
<feGaussianBlur stdDeviation="3"/>
<feComposite in2="hardAlpha" operator="out"/>
<feColorMatrix type="matrix" values="0 0 0 0 0 0 0 0 0 0 0 0 0 0 0 0 0 0 0.75 0"/>
<feBlend mode="normal" in2="BackgroundImageFix" result="effect1_dropShadow_11_629"/>
<feBlend mode="normal" in="SourceGraphic" in2="effect1_dropShadow_11_629" result="shape"/>
<feColorMatrix in="SourceAlpha" type="matrix" values="0 0 0 0 0 0 0 0 0 0 0 0 0 0 0 0 0 0 127 0" result="hardAlpha"/>
<feOffset dx="2" dy="2"/>
<feGaussianBlur stdDeviation="2"/>
<feComposite in2="hardAlpha" operator="arithmetic" k2="-1" k3="1"/>
<feColorMatrix type="matrix" values="0 0 0 0 0.894583 0 0 0 0 0.907767 0 0 0 0 0.941667 0 0 0 0.12 0"/>
<feBlend mode="normal" in2="shape" result="effect2_innerShadow_11_629"/>
<feColorMatrix in="SourceAlpha" type="matrix" values="0 0 0 0 0 0 0 0 0 0 0 0 0 0 0 0 0 0 127 0" result="hardAlpha"/>
<feOffset dx="-2" dy="-2"/>
<feGaussianBlur stdDeviation="2"/>
<feComposite in2="hardAlpha" operator="arithmetic" k2="-1" k3="1"/>
<feColorMatrix type="matrix" values="0 0 0 0 0.00164931 0 0 0 0 0.0298374 0 0 0 0 0.0791667 0 0 0 0.8 0"/>
<feBlend mode="normal" in2="effect2_innerShadow_11_629" result="effect3_innerShadow_11_629"/>
</filter>
<linearGradient id="paint0_linear_11_629" x1="10.5" y1="7" x2="72" y2="78.5" gradientUnits="userSpaceOnUse">
<stop stop-color="#1B2434"/>
<stop offset="1" stop-color="#273348"/>
</linearGradient>
</defs>
</svg>
