<svg width="92" height="92" viewBox="0 0 92 92" fill="none" xmlns="http://www.w3.org/2000/svg">
<g filter="url(#filter0_dii_11_642)">
<rect x="4" y="4" width="80" height="80" rx="16" fill="url(#paint0_linear_11_642)" shape-rendering="crispEdges"/>
<path d="M47.73 48.512L44.67 42.426L41.61 48.512C41.4967 48.7387 41.372 48.9087 41.236 49.022C41.1227 49.1353 40.9413 49.192 40.692 49.192H38.074C37.8473 49.192 37.666 49.1353 37.53 49.022C37.4167 48.9087 37.428 48.7273 37.564 48.478L41.644 40.692C41.848 40.284 42.052 40.012 42.256 39.876C42.46 39.7173 42.7547 39.638 43.14 39.638H46.2C46.5853 39.638 46.88 39.7173 47.084 39.876C47.288 40.012 47.492 40.284 47.696 40.692L51.776 48.478C51.912 48.7273 51.9233 48.9087 51.81 49.022C51.6967 49.1353 51.5153 49.192 51.266 49.192H48.648C48.4213 49.192 48.24 49.1353 48.104 49.022C47.968 48.9087 47.8433 48.7387 47.73 48.512Z" fill="#141528"/>
</g>
<defs>
<filter id="filter0_dii_11_642" x="0" y="0" width="92" height="92" filterUnits="userSpaceOnUse" color-interpolation-filters="sRGB">
<feFlood flood-opacity="0" result="BackgroundImageFix"/>
<feColorMatrix in="SourceAlpha" type="matrix" values="0 0 0 0 0 0 0 0 0 0 0 0 0 0 0 0 0 0 127 0" result="hardAlpha"/>
<feOffset dx="2" dy="2"/>
<feGaussianBlur stdDeviation="3"/>
<feComposite in2="hardAlpha" operator="out"/>
<feColorMatrix type="matrix" values="0 0 0 0 0 0 0 0 0 0 0 0 0 0 0 0 0 0 0.75 0"/>
<feBlend mode="normal" in2="BackgroundImageFix" result="effect1_dropShadow_11_642"/>
<feBlend mode="normal" in="SourceGraphic" in2="effect1_dropShadow_11_642" result="shape"/>
<feColorMatrix in="SourceAlpha" type="matrix" values="0 0 0 0 0 0 0 0 0 0 0 0 0 0 0 0 0 0 127 0" result="hardAlpha"/>
<feOffset dx="2" dy="2"/>
<feGaussianBlur stdDeviation="2"/>
<feComposite in2="hardAlpha" operator="arithmetic" k2="-1" k3="1"/>
<feColorMatrix type="matrix" values="0 0 0 0 0.894583 0 0 0 0 0.907767 0 0 0 0 0.941667 0 0 0 0.6 0"/>
<feBlend mode="normal" in2="shape" result="effect2_innerShadow_11_642"/>
<feColorMatrix in="SourceAlpha" type="matrix" values="0 0 0 0 0 0 0 0 0 0 0 0 0 0 0 0 0 0 127 0" result="hardAlpha"/>
<feOffset dx="-2" dy="-2"/>
<feGaussianBlur stdDeviation="2"/>
<feComposite in2="hardAlpha" operator="arithmetic" k2="-1" k3="1"/>
<feColorMatrix type="matrix" values="0 0 0 0 0.00164931 0 0 0 0 0.0298374 0 0 0 0 0.0791667 0 0 0 0.8 0"/>
<feBlend mode="normal" in2="effect2_innerShadow_11_642" result="effect3_innerShadow_11_642"/>
</filter>
<linearGradient id="paint0_linear_11_642" x1="10.5" y1="7" x2="72" y2="78.5" gradientUnits="userSpaceOnUse">
<stop stop-color="#929EB1"/>
<stop offset="1" stop-color="#CBD1DA"/>
</linearGradient>
</defs>
</svg>
