<svg width="92" height="92" viewBox="0 0 92 92" fill="none" xmlns="http://www.w3.org/2000/svg">
<g filter="url(#filter0_dii_11_624)">
<rect x="4" y="4" width="80" height="80" rx="16" fill="url(#paint0_linear_11_624)" shape-rendering="crispEdges"/>
<path d="M37.098 54.786V51.556C37.098 50.808 37.2453 50.1847 37.54 49.686C37.8347 49.1647 38.2427 48.6887 38.764 48.258L45.02 42.954C45.6093 42.478 46.006 42.002 46.21 41.526C46.4367 41.05 46.55 40.6193 46.55 40.234V39.214C46.55 38.4887 46.38 37.9787 46.04 37.684C45.7 37.3893 45.1673 37.242 44.442 37.242H43.252C42.5493 37.242 42.0393 37.3893 41.722 37.684C41.4273 37.9787 41.28 38.4887 41.28 39.214V40.302C41.28 40.8007 41.042 41.05 40.566 41.05H37.676C37.2 41.05 36.962 40.8007 36.962 40.302V39.146C36.962 37.3553 37.4493 35.9953 38.424 35.066C39.3987 34.114 40.7813 33.638 42.572 33.638H45.156C46.924 33.638 48.2953 34.114 49.27 35.066C50.2673 35.9953 50.766 37.3553 50.766 39.146V40.506C50.766 41.4127 50.5847 42.24 50.222 42.988C49.882 43.7133 49.3833 44.348 48.726 44.892L42.334 50.332C42.1753 50.468 42.062 50.5927 41.994 50.706C41.9487 50.8193 41.926 50.9667 41.926 51.148V51.692H50.052C50.528 51.692 50.766 51.93 50.766 52.406V54.786C50.766 55.262 50.528 55.5 50.052 55.5H37.812C37.336 55.5 37.098 55.262 37.098 54.786Z" fill="#B7C2D6"/>
</g>
<defs>
<filter id="filter0_dii_11_624" x="0" y="0" width="92" height="92" filterUnits="userSpaceOnUse" color-interpolation-filters="sRGB">
<feFlood flood-opacity="0" result="BackgroundImageFix"/>
<feColorMatrix in="SourceAlpha" type="matrix" values="0 0 0 0 0 0 0 0 0 0 0 0 0 0 0 0 0 0 127 0" result="hardAlpha"/>
<feOffset dx="2" dy="2"/>
<feGaussianBlur stdDeviation="3"/>
<feComposite in2="hardAlpha" operator="out"/>
<feColorMatrix type="matrix" values="0 0 0 0 0 0 0 0 0 0 0 0 0 0 0 0 0 0 0.75 0"/>
<feBlend mode="normal" in2="BackgroundImageFix" result="effect1_dropShadow_11_624"/>
<feBlend mode="normal" in="SourceGraphic" in2="effect1_dropShadow_11_624" result="shape"/>
<feColorMatrix in="SourceAlpha" type="matrix" values="0 0 0 0 0 0 0 0 0 0 0 0 0 0 0 0 0 0 127 0" result="hardAlpha"/>
<feOffset dx="2" dy="2"/>
<feGaussianBlur stdDeviation="2"/>
<feComposite in2="hardAlpha" operator="arithmetic" k2="-1" k3="1"/>
<feColorMatrix type="matrix" values="0 0 0 0 0.894583 0 0 0 0 0.907767 0 0 0 0 0.941667 0 0 0 0.12 0"/>
<feBlend mode="normal" in2="shape" result="effect2_innerShadow_11_624"/>
<feColorMatrix in="SourceAlpha" type="matrix" values="0 0 0 0 0 0 0 0 0 0 0 0 0 0 0 0 0 0 127 0" result="hardAlpha"/>
<feOffset dx="-2" dy="-2"/>
<feGaussianBlur stdDeviation="2"/>
<feComposite in2="hardAlpha" operator="arithmetic" k2="-1" k3="1"/>
<feColorMatrix type="matrix" values="0 0 0 0 0.00164931 0 0 0 0 0.0298374 0 0 0 0 0.0791667 0 0 0 0.8 0"/>
<feBlend mode="normal" in2="effect2_innerShadow_11_624" result="effect3_innerShadow_11_624"/>
</filter>
<linearGradient id="paint0_linear_11_624" x1="10.5" y1="7" x2="72" y2="78.5" gradientUnits="userSpaceOnUse">
<stop stop-color="#1B2434"/>
<stop offset="1" stop-color="#273348"/>
</linearGradient>
</defs>
</svg>
