<svg width="180" height="92" viewBox="0 0 180 92" fill="none" xmlns="http://www.w3.org/2000/svg">
<g filter="url(#filter0_dii_11_474)">
<rect x="4" y="4.5" width="168" height="79" rx="16" fill="url(#paint0_linear_11_474)" shape-rendering="crispEdges"/>
<path d="M89.312 55.5H85.912C84.1213 55.5 82.7387 55.024 81.764 54.072C80.7893 53.12 80.302 51.7487 80.302 49.958V39.18C80.302 37.3893 80.7893 36.018 81.764 35.066C82.7387 34.114 84.1213 33.638 85.912 33.638H89.312C91.08 33.638 92.4513 34.114 93.426 35.066C94.4007 36.018 94.888 37.3893 94.888 39.18V49.958C94.888 51.7487 94.4007 53.12 93.426 54.072C92.4513 55.024 91.08 55.5 89.312 55.5ZM86.626 51.76H88.632C89.3573 51.76 89.8673 51.6013 90.162 51.284C90.4567 50.9667 90.604 50.4567 90.604 49.754V39.384C90.604 38.6587 90.4567 38.1487 90.162 37.854C89.8673 37.5367 89.3573 37.378 88.632 37.378H86.626C85.9007 37.378 85.3907 37.5367 85.096 37.854C84.8013 38.1487 84.654 38.6587 84.654 39.384V49.754C84.654 50.4567 84.8013 50.9667 85.096 51.284C85.3907 51.6013 85.9007 51.76 86.626 51.76Z" fill="white"/>
</g>
<defs>
<filter id="filter0_dii_11_474" x="0" y="0.5" width="180" height="91" filterUnits="userSpaceOnUse" color-interpolation-filters="sRGB">
<feFlood flood-opacity="0" result="BackgroundImageFix"/>
<feColorMatrix in="SourceAlpha" type="matrix" values="0 0 0 0 0 0 0 0 0 0 0 0 0 0 0 0 0 0 127 0" result="hardAlpha"/>
<feOffset dx="2" dy="2"/>
<feGaussianBlur stdDeviation="3"/>
<feComposite in2="hardAlpha" operator="out"/>
<feColorMatrix type="matrix" values="0 0 0 0 0 0 0 0 0 0 0 0 0 0 0 0 0 0 0.75 0"/>
<feBlend mode="normal" in2="BackgroundImageFix" result="effect1_dropShadow_11_474"/>
<feBlend mode="normal" in="SourceGraphic" in2="effect1_dropShadow_11_474" result="shape"/>
<feColorMatrix in="SourceAlpha" type="matrix" values="0 0 0 0 0 0 0 0 0 0 0 0 0 0 0 0 0 0 127 0" result="hardAlpha"/>
<feOffset dx="2" dy="2"/>
<feGaussianBlur stdDeviation="2"/>
<feComposite in2="hardAlpha" operator="arithmetic" k2="-1" k3="1"/>
<feColorMatrix type="matrix" values="0 0 0 0 0.894583 0 0 0 0 0.907767 0 0 0 0 0.941667 0 0 0 0.12 0"/>
<feBlend mode="normal" in2="shape" result="effect2_innerShadow_11_474"/>
<feColorMatrix in="SourceAlpha" type="matrix" values="0 0 0 0 0 0 0 0 0 0 0 0 0 0 0 0 0 0 127 0" result="hardAlpha"/>
<feOffset dx="-2" dy="-2"/>
<feGaussianBlur stdDeviation="2"/>
<feComposite in2="hardAlpha" operator="arithmetic" k2="-1" k3="1"/>
<feColorMatrix type="matrix" values="0 0 0 0 0.00164931 0 0 0 0 0.0298374 0 0 0 0 0.0791667 0 0 0 0.8 0"/>
<feBlend mode="normal" in2="effect2_innerShadow_11_474" result="effect3_innerShadow_11_474"/>
</filter>
<linearGradient id="paint0_linear_11_474" x1="17.65" y1="7.4625" x2="60.3509" y2="113.035" gradientUnits="userSpaceOnUse">
<stop stop-color="#1B2434"/>
<stop offset="1" stop-color="#273348"/>
</linearGradient>
</defs>
</svg>
