<svg width="92" height="92" viewBox="0 0 92 92" fill="none" xmlns="http://www.w3.org/2000/svg">
<g filter="url(#filter0_dii_11_628)">
<rect x="4" y="4" width="80" height="80" rx="16" fill="url(#paint0_linear_11_628)" shape-rendering="crispEdges"/>
<path d="M42.246 55.5H39.05C38.846 55.5 38.6987 55.4433 38.608 55.33C38.54 55.194 38.5627 55.0127 38.676 54.786L45.85 37.582H37.86C37.384 37.582 37.146 37.344 37.146 36.868V34.352C37.146 33.876 37.384 33.638 37.86 33.638H49.76C50.236 33.638 50.474 33.876 50.474 34.352V37.208C50.474 37.6387 50.4173 37.9787 50.304 38.228C50.2133 38.4773 50.1113 38.7493 49.998 39.044L43.402 54.854C43.2887 55.126 43.1527 55.3073 42.994 55.398C42.8353 55.466 42.586 55.5 42.246 55.5Z" fill="#B7C2D6"/>
</g>
<defs>
<filter id="filter0_dii_11_628" x="0" y="0" width="92" height="92" filterUnits="userSpaceOnUse" color-interpolation-filters="sRGB">
<feFlood flood-opacity="0" result="BackgroundImageFix"/>
<feColorMatrix in="SourceAlpha" type="matrix" values="0 0 0 0 0 0 0 0 0 0 0 0 0 0 0 0 0 0 127 0" result="hardAlpha"/>
<feOffset dx="2" dy="2"/>
<feGaussianBlur stdDeviation="3"/>
<feComposite in2="hardAlpha" operator="out"/>
<feColorMatrix type="matrix" values="0 0 0 0 0 0 0 0 0 0 0 0 0 0 0 0 0 0 0.75 0"/>
<feBlend mode="normal" in2="BackgroundImageFix" result="effect1_dropShadow_11_628"/>
<feBlend mode="normal" in="SourceGraphic" in2="effect1_dropShadow_11_628" result="shape"/>
<feColorMatrix in="SourceAlpha" type="matrix" values="0 0 0 0 0 0 0 0 0 0 0 0 0 0 0 0 0 0 127 0" result="hardAlpha"/>
<feOffset dx="2" dy="2"/>
<feGaussianBlur stdDeviation="2"/>
<feComposite in2="hardAlpha" operator="arithmetic" k2="-1" k3="1"/>
<feColorMatrix type="matrix" values="0 0 0 0 0.894583 0 0 0 0 0.907767 0 0 0 0 0.941667 0 0 0 0.12 0"/>
<feBlend mode="normal" in2="shape" result="effect2_innerShadow_11_628"/>
<feColorMatrix in="SourceAlpha" type="matrix" values="0 0 0 0 0 0 0 0 0 0 0 0 0 0 0 0 0 0 127 0" result="hardAlpha"/>
<feOffset dx="-2" dy="-2"/>
<feGaussianBlur stdDeviation="2"/>
<feComposite in2="hardAlpha" operator="arithmetic" k2="-1" k3="1"/>
<feColorMatrix type="matrix" values="0 0 0 0 0.00164931 0 0 0 0 0.0298374 0 0 0 0 0.0791667 0 0 0 0.8 0"/>
<feBlend mode="normal" in2="effect2_innerShadow_11_628" result="effect3_innerShadow_11_628"/>
</filter>
<linearGradient id="paint0_linear_11_628" x1="10.5" y1="7" x2="72" y2="78.5" gradientUnits="userSpaceOnUse">
<stop stop-color="#1B2434"/>
<stop offset="1" stop-color="#273348"/>
</linearGradient>
</defs>
</svg>
