<svg width="92" height="92" viewBox="0 0 92 92" fill="none" xmlns="http://www.w3.org/2000/svg">
<g filter="url(#filter0_dii_11_640)">
<rect x="4" y="4" width="80" height="80" rx="16" fill="url(#paint0_linear_11_640)" shape-rendering="crispEdges"/>
<path d="M45.686 55.5H41.98C40.1893 55.5 38.8067 55.024 37.832 54.072C36.8573 53.12 36.37 51.7487 36.37 49.958V39.18C36.37 37.3893 36.8573 36.018 37.832 35.066C38.8067 34.114 40.1893 33.638 41.98 33.638H45.686C47.454 33.638 48.8253 34.114 49.8 35.066C50.7973 36.018 51.296 37.3893 51.296 39.18C51.296 39.18 51.296 39.316 51.296 39.588C51.296 39.8373 51.296 40.098 51.296 40.37C51.296 40.642 51.296 40.778 51.296 40.778C51.296 41.2767 51.0467 41.526 50.548 41.526H47.692C47.216 41.526 46.978 41.2767 46.978 40.778C46.978 40.778 46.978 40.6647 46.978 40.438C46.978 40.1887 46.978 39.9507 46.978 39.724C46.978 39.4973 46.978 39.384 46.978 39.384C46.978 38.6587 46.8193 38.1487 46.502 37.854C46.2073 37.5367 45.6973 37.378 44.972 37.378H42.66C41.9573 37.378 41.4473 37.5367 41.13 37.854C40.8353 38.1487 40.688 38.6587 40.688 39.384V49.754C40.688 50.4567 40.8353 50.9667 41.13 51.284C41.4473 51.6013 41.9573 51.76 42.66 51.76H44.972C45.6973 51.76 46.2073 51.6013 46.502 51.284C46.8193 50.9667 46.978 50.4567 46.978 49.754C46.978 49.754 46.978 49.6407 46.978 49.414C46.978 49.1647 46.978 48.9267 46.978 48.7C46.978 48.4733 46.978 48.36 46.978 48.36C46.978 47.8613 47.216 47.612 47.692 47.612H50.548C51.0467 47.612 51.296 47.8613 51.296 48.36C51.296 48.36 51.296 48.4847 51.296 48.734C51.296 48.9833 51.296 49.244 51.296 49.516C51.296 49.7653 51.296 49.9127 51.296 49.958C51.296 51.7487 50.7973 53.12 49.8 54.072C48.8253 55.024 47.454 55.5 45.686 55.5Z" fill="#141528"/>
</g>
<defs>
<filter id="filter0_dii_11_640" x="0" y="0" width="92" height="92" filterUnits="userSpaceOnUse" color-interpolation-filters="sRGB">
<feFlood flood-opacity="0" result="BackgroundImageFix"/>
<feColorMatrix in="SourceAlpha" type="matrix" values="0 0 0 0 0 0 0 0 0 0 0 0 0 0 0 0 0 0 127 0" result="hardAlpha"/>
<feOffset dx="2" dy="2"/>
<feGaussianBlur stdDeviation="3"/>
<feComposite in2="hardAlpha" operator="out"/>
<feColorMatrix type="matrix" values="0 0 0 0 0 0 0 0 0 0 0 0 0 0 0 0 0 0 0.75 0"/>
<feBlend mode="normal" in2="BackgroundImageFix" result="effect1_dropShadow_11_640"/>
<feBlend mode="normal" in="SourceGraphic" in2="effect1_dropShadow_11_640" result="shape"/>
<feColorMatrix in="SourceAlpha" type="matrix" values="0 0 0 0 0 0 0 0 0 0 0 0 0 0 0 0 0 0 127 0" result="hardAlpha"/>
<feOffset dx="2" dy="2"/>
<feGaussianBlur stdDeviation="2"/>
<feComposite in2="hardAlpha" operator="arithmetic" k2="-1" k3="1"/>
<feColorMatrix type="matrix" values="0 0 0 0 0.894583 0 0 0 0 0.907767 0 0 0 0 0.941667 0 0 0 0.6 0"/>
<feBlend mode="normal" in2="shape" result="effect2_innerShadow_11_640"/>
<feColorMatrix in="SourceAlpha" type="matrix" values="0 0 0 0 0 0 0 0 0 0 0 0 0 0 0 0 0 0 127 0" result="hardAlpha"/>
<feOffset dx="-2" dy="-2"/>
<feGaussianBlur stdDeviation="2"/>
<feComposite in2="hardAlpha" operator="arithmetic" k2="-1" k3="1"/>
<feColorMatrix type="matrix" values="0 0 0 0 0.00164931 0 0 0 0 0.0298374 0 0 0 0 0.0791667 0 0 0 0.8 0"/>
<feBlend mode="normal" in2="effect2_innerShadow_11_640" result="effect3_innerShadow_11_640"/>
</filter>
<linearGradient id="paint0_linear_11_640" x1="10.5" y1="7" x2="72" y2="78.5" gradientUnits="userSpaceOnUse">
<stop stop-color="#929EB1"/>
<stop offset="1" stop-color="#CBD1DA"/>
</linearGradient>
</defs>
</svg>
