<svg width="92" height="92" viewBox="0 0 92 92" fill="none" xmlns="http://www.w3.org/2000/svg">
<g filter="url(#filter0_dii_11_633)">
<rect x="4" y="4" width="80" height="80" rx="16" fill="url(#paint0_linear_11_633)" shape-rendering="crispEdges"/>
<path d="M45.71 55.5H42.378C40.5873 55.5 39.2047 55.024 38.23 54.072C37.2553 53.12 36.768 51.7487 36.768 49.958V39.18C36.768 37.3893 37.2553 36.018 38.23 35.066C39.2047 34.114 40.5873 33.638 42.378 33.638H49.314C49.79 33.638 50.028 33.876 50.028 34.352V36.698C50.028 37.1513 49.79 37.378 49.314 37.378H43.058C42.3553 37.378 41.8453 37.5367 41.528 37.854C41.2333 38.1487 41.086 38.6587 41.086 39.384V41.662H45.71C47.5007 41.662 48.8833 42.138 49.858 43.09C50.8327 44.042 51.32 45.4133 51.32 47.204V49.958C51.32 51.7487 50.8327 53.12 49.858 54.072C48.8833 55.024 47.5007 55.5 45.71 55.5ZM43.058 51.76H44.996C45.7213 51.76 46.2313 51.6013 46.526 51.284C46.8433 50.9667 47.002 50.4567 47.002 49.754V47.408C47.002 46.6827 46.8433 46.1727 46.526 45.878C46.2313 45.5607 45.7213 45.402 44.996 45.402H41.086V49.754C41.086 50.4567 41.2333 50.9667 41.528 51.284C41.8227 51.6013 42.3327 51.76 43.058 51.76Z" fill="#B7C2D6"/>
</g>
<defs>
<filter id="filter0_dii_11_633" x="0" y="0" width="92" height="92" filterUnits="userSpaceOnUse" color-interpolation-filters="sRGB">
<feFlood flood-opacity="0" result="BackgroundImageFix"/>
<feColorMatrix in="SourceAlpha" type="matrix" values="0 0 0 0 0 0 0 0 0 0 0 0 0 0 0 0 0 0 127 0" result="hardAlpha"/>
<feOffset dx="2" dy="2"/>
<feGaussianBlur stdDeviation="3"/>
<feComposite in2="hardAlpha" operator="out"/>
<feColorMatrix type="matrix" values="0 0 0 0 0 0 0 0 0 0 0 0 0 0 0 0 0 0 0.75 0"/>
<feBlend mode="normal" in2="BackgroundImageFix" result="effect1_dropShadow_11_633"/>
<feBlend mode="normal" in="SourceGraphic" in2="effect1_dropShadow_11_633" result="shape"/>
<feColorMatrix in="SourceAlpha" type="matrix" values="0 0 0 0 0 0 0 0 0 0 0 0 0 0 0 0 0 0 127 0" result="hardAlpha"/>
<feOffset dx="2" dy="2"/>
<feGaussianBlur stdDeviation="2"/>
<feComposite in2="hardAlpha" operator="arithmetic" k2="-1" k3="1"/>
<feColorMatrix type="matrix" values="0 0 0 0 0.894583 0 0 0 0 0.907767 0 0 0 0 0.941667 0 0 0 0.12 0"/>
<feBlend mode="normal" in2="shape" result="effect2_innerShadow_11_633"/>
<feColorMatrix in="SourceAlpha" type="matrix" values="0 0 0 0 0 0 0 0 0 0 0 0 0 0 0 0 0 0 127 0" result="hardAlpha"/>
<feOffset dx="-2" dy="-2"/>
<feGaussianBlur stdDeviation="2"/>
<feComposite in2="hardAlpha" operator="arithmetic" k2="-1" k3="1"/>
<feColorMatrix type="matrix" values="0 0 0 0 0.00164931 0 0 0 0 0.0298374 0 0 0 0 0.0791667 0 0 0 0.8 0"/>
<feBlend mode="normal" in2="effect2_innerShadow_11_633" result="effect3_innerShadow_11_633"/>
</filter>
<linearGradient id="paint0_linear_11_633" x1="10.5" y1="7" x2="72" y2="78.5" gradientUnits="userSpaceOnUse">
<stop stop-color="#1B2434"/>
<stop offset="1" stop-color="#273348"/>
</linearGradient>
</defs>
</svg>
