<svg width="92" height="92" viewBox="0 0 92 92" fill="none" xmlns="http://www.w3.org/2000/svg">
<g filter="url(#filter0_dii_11_631)">
<rect x="4" y="4" width="80" height="80" rx="16" fill="url(#paint0_linear_11_631)" shape-rendering="crispEdges"/>
<path d="M44.282 44.382H42.684C42.276 44.382 41.97 44.4613 41.766 44.62C41.5847 44.756 41.4373 44.9147 41.324 45.096C41.2333 45.2773 41.12 45.4473 40.984 45.606C40.848 45.742 40.644 45.81 40.372 45.81H37.55C37.074 45.81 36.836 45.5833 36.836 45.13V34.352C36.836 33.876 37.074 33.638 37.55 33.638H49.382C49.858 33.638 50.096 33.876 50.096 34.352V36.936C50.096 37.412 49.858 37.65 49.382 37.65H41.154V42.648C41.3353 42.104 41.6753 41.6847 42.174 41.39C42.6727 41.0953 43.2847 40.948 44.01 40.948H45.438C47.1833 40.948 48.498 41.39 49.382 42.274C50.266 43.1353 50.708 44.45 50.708 46.218V49.958C50.708 51.7487 50.2207 53.12 49.246 54.072C48.2713 55.024 46.9 55.5 45.132 55.5H42.14C40.3493 55.5 38.9667 55.024 37.992 54.072C37.0173 53.12 36.53 51.7487 36.53 49.958V49.278C36.53 48.7793 36.768 48.53 37.244 48.53H40.134C40.61 48.53 40.848 48.7793 40.848 49.278V49.924C40.848 50.6267 40.9953 51.1367 41.29 51.454C41.6073 51.7487 42.1173 51.896 42.82 51.896H44.418C45.1433 51.896 45.676 51.7487 46.016 51.454C46.356 51.1367 46.526 50.6267 46.526 49.924V46.864C46.526 45.8893 46.3673 45.232 46.05 44.892C45.7327 44.552 45.1433 44.382 44.282 44.382Z" fill="#B7C2D6"/>
</g>
<defs>
<filter id="filter0_dii_11_631" x="0" y="0" width="92" height="92" filterUnits="userSpaceOnUse" color-interpolation-filters="sRGB">
<feFlood flood-opacity="0" result="BackgroundImageFix"/>
<feColorMatrix in="SourceAlpha" type="matrix" values="0 0 0 0 0 0 0 0 0 0 0 0 0 0 0 0 0 0 127 0" result="hardAlpha"/>
<feOffset dx="2" dy="2"/>
<feGaussianBlur stdDeviation="3"/>
<feComposite in2="hardAlpha" operator="out"/>
<feColorMatrix type="matrix" values="0 0 0 0 0 0 0 0 0 0 0 0 0 0 0 0 0 0 0.75 0"/>
<feBlend mode="normal" in2="BackgroundImageFix" result="effect1_dropShadow_11_631"/>
<feBlend mode="normal" in="SourceGraphic" in2="effect1_dropShadow_11_631" result="shape"/>
<feColorMatrix in="SourceAlpha" type="matrix" values="0 0 0 0 0 0 0 0 0 0 0 0 0 0 0 0 0 0 127 0" result="hardAlpha"/>
<feOffset dx="2" dy="2"/>
<feGaussianBlur stdDeviation="2"/>
<feComposite in2="hardAlpha" operator="arithmetic" k2="-1" k3="1"/>
<feColorMatrix type="matrix" values="0 0 0 0 0.894583 0 0 0 0 0.907767 0 0 0 0 0.941667 0 0 0 0.12 0"/>
<feBlend mode="normal" in2="shape" result="effect2_innerShadow_11_631"/>
<feColorMatrix in="SourceAlpha" type="matrix" values="0 0 0 0 0 0 0 0 0 0 0 0 0 0 0 0 0 0 127 0" result="hardAlpha"/>
<feOffset dx="-2" dy="-2"/>
<feGaussianBlur stdDeviation="2"/>
<feComposite in2="hardAlpha" operator="arithmetic" k2="-1" k3="1"/>
<feColorMatrix type="matrix" values="0 0 0 0 0.00164931 0 0 0 0 0.0298374 0 0 0 0 0.0791667 0 0 0 0.8 0"/>
<feBlend mode="normal" in2="effect2_innerShadow_11_631" result="effect3_innerShadow_11_631"/>
</filter>
<linearGradient id="paint0_linear_11_631" x1="10.5" y1="7" x2="72" y2="78.5" gradientUnits="userSpaceOnUse">
<stop stop-color="#1B2434"/>
<stop offset="1" stop-color="#273348"/>
</linearGradient>
</defs>
</svg>
