<svg width="80" height="80" viewBox="0 0 80 80" fill="none" xmlns="http://www.w3.org/2000/svg">
<g filter="url(#filter0_ii_11_560)">
<rect width="80" height="80" rx="16" fill="url(#paint0_linear_11_560)"/>
<g filter="url(#filter1_i_11_560)">
<path fill-rule="evenodd" clip-rule="evenodd" d="M37.5797 50.8158C37.5797 51.368 38.0274 51.8158 38.5797 51.8158H41.4204C41.9726 51.8158 42.4204 51.368 42.4204 50.8158V42.4203H50.8158C51.3681 42.4203 51.8158 41.9726 51.8158 41.4203V38.5797C51.8158 38.0274 51.3681 37.5797 50.8158 37.5797H42.4204V29.1842C42.4204 28.6319 41.9726 28.1842 41.4204 28.1842H38.5797C38.0274 28.1842 37.5797 28.6319 37.5797 29.1842V37.5797H29.1843C28.632 37.5797 28.1843 38.0274 28.1843 38.5797V41.4203C28.1843 41.9726 28.632 42.4203 29.1843 42.4203H37.5797V50.8158Z" fill="white"/>
</g>
</g>
<defs>
<filter id="filter0_ii_11_560" x="-2" y="-2" width="84" height="84" filterUnits="userSpaceOnUse" color-interpolation-filters="sRGB">
<feFlood flood-opacity="0" result="BackgroundImageFix"/>
<feBlend mode="normal" in="SourceGraphic" in2="BackgroundImageFix" result="shape"/>
<feColorMatrix in="SourceAlpha" type="matrix" values="0 0 0 0 0 0 0 0 0 0 0 0 0 0 0 0 0 0 127 0" result="hardAlpha"/>
<feOffset dx="2" dy="2"/>
<feGaussianBlur stdDeviation="2"/>
<feComposite in2="hardAlpha" operator="arithmetic" k2="-1" k3="1"/>
<feColorMatrix type="matrix" values="0 0 0 0 0.894583 0 0 0 0 0.907767 0 0 0 0 0.941667 0 0 0 0.6 0"/>
<feBlend mode="normal" in2="shape" result="effect1_innerShadow_11_560"/>
<feColorMatrix in="SourceAlpha" type="matrix" values="0 0 0 0 0 0 0 0 0 0 0 0 0 0 0 0 0 0 127 0" result="hardAlpha"/>
<feOffset dx="-2" dy="-2"/>
<feGaussianBlur stdDeviation="2"/>
<feComposite in2="hardAlpha" operator="arithmetic" k2="-1" k3="1"/>
<feColorMatrix type="matrix" values="0 0 0 0 0.00164931 0 0 0 0 0.0298374 0 0 0 0 0.0791667 0 0 0 0.8 0"/>
<feBlend mode="normal" in2="effect1_innerShadow_11_560" result="effect2_innerShadow_11_560"/>
</filter>
<filter id="filter1_i_11_560" x="28.1843" y="28.1842" width="23.6315" height="23.6315" filterUnits="userSpaceOnUse" color-interpolation-filters="sRGB">
<feFlood flood-opacity="0" result="BackgroundImageFix"/>
<feBlend mode="normal" in="SourceGraphic" in2="BackgroundImageFix" result="shape"/>
<feColorMatrix in="SourceAlpha" type="matrix" values="0 0 0 0 0 0 0 0 0 0 0 0 0 0 0 0 0 0 127 0" result="hardAlpha"/>
<feOffset/>
<feGaussianBlur stdDeviation="0.5"/>
<feComposite in2="hardAlpha" operator="arithmetic" k2="-1" k3="1"/>
<feColorMatrix type="matrix" values="0 0 0 0 0.917647 0 0 0 0 0.301961 0 0 0 0 0.403922 0 0 0 0.5 0"/>
<feBlend mode="normal" in2="shape" result="effect1_innerShadow_11_560"/>
</filter>
<linearGradient id="paint0_linear_11_560" x1="13.5" y1="14.5" x2="68" y2="74.5" gradientUnits="userSpaceOnUse">
<stop stop-color="#D8051F"/>
<stop offset="1" stop-color="#F24257"/>
</linearGradient>
</defs>
</svg>
