<svg width="25" height="25" viewBox="0 0 25 25" fill="none" xmlns="http://www.w3.org/2000/svg">
<path d="M14.186 24H10.48C8.68933 24 7.30667 23.524 6.332 22.572C5.35733 21.62 4.87 20.2487 4.87 18.458V7.68C4.87 5.88933 5.35733 4.518 6.332 3.566C7.30667 2.614 8.68933 2.138 10.48 2.138H14.186C15.954 2.138 17.3253 2.614 18.3 3.566C19.2973 4.518 19.796 5.88933 19.796 7.68C19.796 7.68 19.796 7.816 19.796 8.088C19.796 8.33733 19.796 8.598 19.796 8.87C19.796 9.142 19.796 9.278 19.796 9.278C19.796 9.77667 19.5467 10.026 19.048 10.026H16.192C15.716 10.026 15.478 9.77667 15.478 9.278C15.478 9.278 15.478 9.16467 15.478 8.938C15.478 8.68867 15.478 8.45067 15.478 8.224C15.478 7.99733 15.478 7.884 15.478 7.884C15.478 7.15867 15.3193 6.64867 15.002 6.354C14.7073 6.03666 14.1973 5.878 13.472 5.878H11.16C10.4573 5.878 9.94733 6.03666 9.63 6.354C9.33533 6.64867 9.188 7.15867 9.188 7.884V18.254C9.188 18.9567 9.33533 19.4667 9.63 19.784C9.94733 20.1013 10.4573 20.26 11.16 20.26H13.472C14.1973 20.26 14.7073 20.1013 15.002 19.784C15.3193 19.4667 15.478 18.9567 15.478 18.254C15.478 18.254 15.478 18.1407 15.478 17.914C15.478 17.6647 15.478 17.4267 15.478 17.2C15.478 16.9733 15.478 16.86 15.478 16.86C15.478 16.3613 15.716 16.112 16.192 16.112H19.048C19.5467 16.112 19.796 16.3613 19.796 16.86C19.796 16.86 19.796 16.9847 19.796 17.234C19.796 17.4833 19.796 17.744 19.796 18.016C19.796 18.2653 19.796 18.4127 19.796 18.458C19.796 20.2487 19.2973 21.62 18.3 22.572C17.3253 23.524 15.954 24 14.186 24Z" fill="#141528"/>
</svg>
