<svg width="24" height="24" viewBox="0 0 24 24" fill="none" xmlns="http://www.w3.org/2000/svg">
<path fill-rule="evenodd" clip-rule="evenodd" d="M9.00004 1C9.00004 0.447716 9.44775 0 10 0H13C13.5523 0 14 0.447715 14 1V4.22876C14 4.78105 13.5523 5.22876 13 5.22876H10C9.44775 5.22876 9.00004 4.78105 9.00004 4.22876V1ZM0 10.3856C0 9.83333 0.447715 9.38562 1 9.38562H23C23.5523 9.38562 24 9.83333 24 10.3856V13.6144C24 14.1667 23.5523 14.6144 23 14.6144H1C0.447716 14.6144 0 14.1667 0 13.6144V10.3856ZM10 18.7712C9.44775 18.7712 9.00004 19.219 9.00004 19.7712V23C9.00004 23.5523 9.44775 24 10 24H13C13.5523 24 14 23.5523 14 23V19.7712C14 19.219 13.5523 18.7712 13 18.7712H10Z" fill="white"/>
</svg>
