<svg width="25" height="25" viewBox="0 0 25 25" fill="none" xmlns="http://www.w3.org/2000/svg">
<path fill-rule="evenodd" clip-rule="evenodd" d="M1.42456 5.46857C0.872276 5.46857 0.424561 5.91628 0.424561 6.46857V9.50001C0.424561 10.0523 0.872276 10.5 1.42456 10.5H23.5755C24.1278 10.5 24.5755 10.0523 24.5755 9.50001V6.46857C24.5755 5.91628 24.1278 5.46857 23.5755 5.46857H1.42456ZM1.42456 14.5C0.872276 14.5 0.424561 14.9477 0.424561 15.5V18.5314C0.424561 19.0837 0.872276 19.5314 1.42456 19.5314H23.5755C24.1278 19.5314 24.5755 19.0837 24.5755 18.5314V15.5C24.5755 14.9477 24.1278 14.5 23.5755 14.5H1.42456Z" fill="white"/>
</svg>
