<svg width="25" height="25" viewBox="0 0 25 25" fill="none" xmlns="http://www.w3.org/2000/svg">
<g filter="url(#filter0_i_11_504)">
<path fill-rule="evenodd" clip-rule="evenodd" d="M6.56355 3.14067C6.17303 2.75015 5.53986 2.75015 5.14934 3.14067L3.14069 5.14932C2.75016 5.53985 2.75016 6.17301 3.14069 6.56354L9.07715 12.5L3.14067 18.4365C2.75015 18.827 2.75015 19.4602 3.14067 19.8507L5.14932 21.8593C5.53985 22.2499 6.17301 22.2499 6.56354 21.8593L12.5 15.9229L18.4365 21.8593C18.827 22.2499 19.4602 22.2499 19.8507 21.8593L21.8593 19.8507C22.2499 19.4602 22.2499 18.827 21.8593 18.4365L15.9229 12.5L21.8593 6.56355C22.2499 6.17303 22.2499 5.53986 21.8593 5.14934L19.8507 3.14069C19.4602 2.75016 18.827 2.75016 18.4365 3.14069L12.5 9.07713L6.56355 3.14067Z" fill="white"/>
</g>
<defs>
<filter id="filter0_i_11_504" x="2.84778" y="2.84778" width="19.3044" height="19.3045" filterUnits="userSpaceOnUse" color-interpolation-filters="sRGB">
<feFlood flood-opacity="0" result="BackgroundImageFix"/>
<feBlend mode="normal" in="SourceGraphic" in2="BackgroundImageFix" result="shape"/>
<feColorMatrix in="SourceAlpha" type="matrix" values="0 0 0 0 0 0 0 0 0 0 0 0 0 0 0 0 0 0 127 0" result="hardAlpha"/>
<feOffset/>
<feGaussianBlur stdDeviation="0.5"/>
<feComposite in2="hardAlpha" operator="arithmetic" k2="-1" k3="1"/>
<feColorMatrix type="matrix" values="0 0 0 0 0.917647 0 0 0 0 0.301961 0 0 0 0 0.403922 0 0 0 0.5 0"/>
<feBlend mode="normal" in2="shape" result="effect1_innerShadow_11_504"/>
</filter>
</defs>
</svg>
