<svg width="30" height="31" viewBox="0 0 30 31" fill="none" xmlns="http://www.w3.org/2000/svg">
<path d="M7.08 19.904H4.598C4.30333 19.904 4.09933 19.8473 3.986 19.734C3.87267 19.598 3.816 19.394 3.816 19.122V17.218C3.816 16.9233 3.87267 16.7193 3.986 16.606C4.09933 16.47 4.30333 16.402 4.598 16.402H9.392C9.98133 16.402 10.4233 16.5267 10.718 16.776C11.0353 17.0027 11.262 17.3427 11.398 17.796L13.744 25.106L21.224 2.938C21.3373 2.68867 21.4507 2.50733 21.564 2.394C21.7 2.28067 21.8927 2.224 22.142 2.224H24.76C25.0093 2.224 25.1793 2.292 25.27 2.428C25.3833 2.54133 25.3947 2.71133 25.304 2.938L16.226 29.186C16.1353 29.4807 15.988 29.73 15.784 29.934C15.6027 30.138 15.2853 30.24 14.832 30.24H12.69C12.078 30.24 11.636 30.07 11.364 29.73C11.092 29.39 10.854 28.9253 10.65 28.336L8.168 20.924C8.05467 20.5613 7.94133 20.3007 7.828 20.142C7.71467 19.9833 7.46533 19.904 7.08 19.904Z" fill="#141528"/>
</svg>
